<svg id="Ebene_1" data-name="Ebene 1" xmlns="http://www.w3.org/2000/svg" width="96.61mm" height="24.58mm" viewBox="0 0 273.85 69.68">
  <path d="M109.44,26.44A11.5,11.5,0,0,0,100.85,30a12.43,12.43,0,0,0-3.43,9,12.33,12.33,0,0,0,3.42,9,11.77,11.77,0,0,0,8.78,3.48,13.55,13.55,0,0,0,10-4l-1.58-2a11.3,11.3,0,0,1-8.2,3.46,9.23,9.23,0,0,1-6.45-2.39A9.38,9.38,0,0,1,100.41,40h20.35c0-.51,0-.92,0-1.21a12.75,12.75,0,0,0-3.27-8.9,10.58,10.58,0,0,0-8.1-3.48m-9,11.06a9.65,9.65,0,0,1,2.86-6.09,8.33,8.33,0,0,1,6.07-2.36,7.86,7.86,0,0,1,5.76,2.34,9.33,9.33,0,0,1,2.67,6.11Z" transform="translate(-4.04 -3.73)" fill="#264964"/>
  <path d="M138.69,29.2a9.71,9.71,0,0,1,7.11,3l1.91-2a11.35,11.35,0,0,0-9-3.77A12,12,0,0,0,129.83,30a12.31,12.31,0,0,0-3.5,9,12.24,12.24,0,0,0,3.5,8.94,12,12,0,0,0,8.93,3.56,11.43,11.43,0,0,0,9-3.76l-1.83-2a9.93,9.93,0,0,1-7.19,3A8.89,8.89,0,0,1,132,46a9.62,9.62,0,0,1-2.69-7A9.67,9.67,0,0,1,132,32a8.89,8.89,0,0,1,6.68-2.77" transform="translate(-4.04 -3.73)" fill="#264964"/>
  <path d="M164.91,26.44A12.28,12.28,0,0,0,152.33,39a12.27,12.27,0,0,0,12.58,12.51,12.31,12.31,0,0,0,9-3.58A12.08,12.08,0,0,0,177.55,39,12.08,12.08,0,0,0,173.93,30a12.32,12.32,0,0,0-9-3.59M171.79,46a9.89,9.89,0,0,1-13.72,0,9.51,9.51,0,0,1-2.75-7,9.56,9.56,0,0,1,2.75-7,9.88,9.88,0,0,1,13.72,0,9.55,9.55,0,0,1,2.74,7,9.48,9.48,0,0,1-2.74,7" transform="translate(-4.04 -3.73)" fill="#264964"/>
  <path d="M199.87,39.15A10,10,0,0,0,197.41,38a17.18,17.18,0,0,0-3-.66L192,37a9.77,9.77,0,0,1-4.37-1.33A3.15,3.15,0,0,1,186.26,33a3.81,3.81,0,0,1,1.8-3.3,8.14,8.14,0,0,1,4.68-1.23,13.08,13.08,0,0,1,7.56,2.35l1.47-2.33a15.12,15.12,0,0,0-9-2.74,12.72,12.72,0,0,0-4.78.85,7.86,7.86,0,0,0-3.43,2.56,6.54,6.54,0,0,0-1.28,4,5.63,5.63,0,0,0,2,4.61,10.25,10.25,0,0,0,5.4,2l2.53.29a10.58,10.58,0,0,1,4.56,1.32,3.13,3.13,0,0,1,1.51,2.78,3.74,3.74,0,0,1-1.95,3.36,9.42,9.42,0,0,1-5,1.2,13.8,13.8,0,0,1-4.62-.81,11.21,11.21,0,0,1-3.64-2l-1.57,2.29a13.09,13.09,0,0,0,4.43,2.35,17.56,17.56,0,0,0,5.42.88,13.93,13.93,0,0,0,5-.84A8,8,0,0,0,200.88,48a6.49,6.49,0,0,0,1.37-4.12,6,6,0,0,0-.63-2.79,5.24,5.24,0,0,0-1.75-2" transform="translate(-4.04 -3.73)" fill="#264964"/>
  <polygon points="201.1 25.01 209.8 25.01 209.8 47.36 212.66 47.36 212.66 25.01 221.37 25.01 221.37 22.29 201.1 22.29 201.1 25.01" fill="#264964"/>
  <path d="M249.81,29.29a12.35,12.35,0,0,0-4.11-2.66,14.21,14.21,0,0,0-10.32,0,12.35,12.35,0,0,0-4.11,2.66,12.09,12.09,0,0,0-2.69,4.09,14,14,0,0,0,0,10.36,12.09,12.09,0,0,0,2.69,4.09,12.35,12.35,0,0,0,4.11,2.66,14.35,14.35,0,0,0,10.32,0,11.95,11.95,0,0,0,6.81-6.75,14.18,14.18,0,0,0,0-10.36,12.26,12.26,0,0,0-2.7-4.09m-.64,14.55a9,9,0,0,1-3.56,3.59,10.3,10.3,0,0,1-5.07,1.25,10.43,10.43,0,0,1-3.92-.74,9.59,9.59,0,0,1-3.15-2,9.4,9.4,0,0,1-2.09-3.21,11.55,11.55,0,0,1,0-8.24,9.4,9.4,0,0,1,2.09-3.21,9.59,9.59,0,0,1,3.15-2.05,10.43,10.43,0,0,1,3.92-.74,10.3,10.3,0,0,1,5.07,1.25,9,9,0,0,1,3.56,3.59,11.3,11.3,0,0,1,0,10.56" transform="translate(-4.04 -3.73)" fill="#264964"/>
  <path d="M269.16,40.19a9.78,9.78,0,0,0,6.37-1.92,6.3,6.3,0,0,0,2.35-5.17,6.35,6.35,0,0,0-2.26-5.24c-1.51-1.23-3.68-1.84-6.49-1.84h-9.84V51.1h2.89V40.19h3.17l8.83,10.91h3.58l-9-10.91Zm-7-2.62V28.73h6.91a7.1,7.1,0,0,1,4.32,1.1,3.8,3.8,0,0,1,1.48,3.27,4,4,0,0,1-1.46,3.34,7,7,0,0,1-4.34,1.13Z" transform="translate(-4.04 -3.73)" fill="#264964"/>
  <path d="M59,67c.49-.35,1-.7,1.44-1.08l.38-.3c.47-.38.92-.76,1.37-1.16l.35-.33c.44-.4.87-.82,1.3-1.25l.3-.32c.41-.44.82-.88,1.21-1.34l.26-.31c.37-.44.72-.88,1.07-1.34l.26-.34c.35-.47.68-1,1-1.45.09-.13.18-.26.26-.39.33-.5.63-1,.93-1.52.05-.1.11-.18.16-.28s0,0,0-.05c.25-.45.5-.9.73-1.35H38.08a1,1,0,0,1-.94-.94V39.51a1,1,0,0,1,.94-.94H73.72c0-.28,0-.57,0-.86,0,0,0-.06,0-.09,0-.28,0-.56,0-.84l0-.6c0-.51-.09-1-.15-1.52,0-.17,0-.35,0-.52-.07-.55-.16-1.09-.25-1.63,0-.12,0-.25-.07-.37-.12-.66-.26-1.32-.42-2h0a33.51,33.51,0,0,0-1.22-3.91c0-.06,0-.11-.07-.16-.21-.56-.44-1.12-.68-1.66-.06-.14-.13-.26-.19-.39-.15-.34-.3-.69-.47-1L70,23l-.21-.43H38.08a1,1,0,0,1-.94-.94v-4.3a1,1,0,0,1,.94-.94H65.7c-.44-.53-.89-1-1.36-1.54l0,0a33.94,33.94,0,0,0-4-3.62L60.17,11c-.42-.32-.84-.64-1.27-.95l-.39-.26-1.13-.74-.5-.3c-.35-.22-.71-.43-1.07-.63l-.57-.3-1.05-.55L53.56,7l-1-.47-.67-.27-1.06-.41-.69-.24L49,5.24,48.32,5l-1.1-.28-.73-.18-1.13-.22-.73-.14c-.39-.07-.79-.12-1.18-.17S43,4,42.74,4c-.43-.05-.87-.08-1.32-.11l-.59,0c-.64,0-1.29-.06-1.94-.06h0c-.7,0-1.39,0-2.07.07l-.35,0c-.66.05-1.32.11-2,.19l-.33,0a32.72,32.72,0,0,0-4,.78l-.27.07c-.64.17-1.26.35-1.89.56l-.26.09A34.13,34.13,0,0,0,24,7.07l-.19.09c-.59.29-1.18.59-1.76.91l-.08,0h0a32.4,32.4,0,0,0-2.82,1.75h18.1a.94.94,0,0,1,.94.94v1.35a.94.94,0,0,1-.94.94H15.11l-.25.25h0l-.52.52-.7.7-.47.52c-.47.52-.92,1-1.36,1.58-.16.21-.33.41-.5.62s-.41.55-.61.83l-.48.67-.56.85-.45.7-.52.89c-.14.23-.27.48-.4.72s-.33.61-.49.91-.24.49-.35.74-.3.63-.45,1c0,.06-.06.12-.08.18a.64.64,0,0,0,0,.07c-.18.41-.36.83-.53,1.26H37.44a.94.94,0,0,1,.94.94V34.3a.94.94,0,0,1-.94.94H4.2c0,.28,0,.56-.06.84,0,0,0,0,0,0s0,.19,0,.29c0,.27,0,.53,0,.81s0,.48,0,.72,0,.43,0,.64A34.74,34.74,0,0,0,5.85,49.66v0c.12.37.25.73.39,1.09a.13.13,0,0,0,0,.08c.13.35.26.69.41,1a.36.36,0,0,0,0,.11c.14.34.28.67.43,1l.06.14c.15.32.31.63.46.95l.08.15c.15.31.31.61.48.92l.09.16c.16.3.33.59.5.88a1.74,1.74,0,0,0,.11.18c.17.29.34.57.52.85l.06.11h0c.09.14.18.29.27.42H37.44a1,1,0,0,1,.94.94V73.4h0c.32,0,.63,0,.95,0h.11c.7,0,1.4,0,2.08-.1l.36,0c.67,0,1.34-.13,2-.23l.38,0q1-.15,2-.36l.36-.08c.65-.15,1.29-.31,1.92-.49l.32-.1c.64-.19,1.28-.39,1.9-.62l.24-.09q.91-.33,1.8-.72l.21-.09c.6-.26,1.19-.55,1.77-.84l.3-.16c.56-.3,1.11-.6,1.65-.93l.36-.21c.52-.32,1-.66,1.54-1L59,67" transform="translate(-4.04 -3.73)" fill="#264964"/>
</svg>
